<?xml version="1.0" encoding="UTF-8" standalone="no"?>
<!-- Created with Inkscape (http://www.inkscape.org/) -->

<svg
   xmlns:dc="http://purl.org/dc/elements/1.1/"
   xmlns:cc="http://creativecommons.org/ns#"
   xmlns:rdf="http://www.w3.org/1999/02/22-rdf-syntax-ns#"
   xmlns:svg="http://www.w3.org/2000/svg"
   xmlns="http://www.w3.org/2000/svg"
   xmlns:sodipodi="http://sodipodi.sourceforge.net/DTD/sodipodi-0.dtd"
   xmlns:inkscape="http://www.inkscape.org/namespaces/inkscape"
   width="48px"
   height="48px"
   id="svg88624"
   version="1.1"
   inkscape:version="0.48.4 r9939"
   sodipodi:docname="New document 50">
  <defs
     id="defs88626" />
  <sodipodi:namedview
     id="base"
     pagecolor="#ffffff"
     bordercolor="#666666"
     borderopacity="1.0"
     inkscape:pageopacity="0.0"
     inkscape:pageshadow="2"
     inkscape:zoom="14"
     inkscape:cx="12.928571"
     inkscape:cy="25.928571"
     inkscape:current-layer="layer1"
     showgrid="true"
     inkscape:grid-bbox="true"
     inkscape:document-units="px"
     inkscape:window-width="2560"
     inkscape:window-height="1538"
     inkscape:window-x="-8"
     inkscape:window-y="-8"
     inkscape:window-maximized="1" />
  <metadata
     id="metadata88629">
    <rdf:RDF>
      <cc:Work
         rdf:about="">
        <dc:format>image/svg+xml</dc:format>
        <dc:type
           rdf:resource="http://purl.org/dc/dcmitype/StillImage" />
        <dc:title></dc:title>
      </cc:Work>
    </rdf:RDF>
  </metadata>
  <g
     id="layer1"
     inkscape:label="Layer 1"
     inkscape:groupmode="layer">
    <path
       inkscape:connector-curvature="0"
       id="path89105"
       d="M 1.2256238,20.80404 C 0.36458935,19.045873 1.5986553,16.966256 0.93870697,15.194894 1.4986406,13.146958 1.8775606,10.674138 3.7849787,9.441986 c 2.6656367,-1.020511 5.5459905,0.036736 8.0032433,1.150139 1.567074,-0.516534 3.835687,1.676904 4.167834,1.895385 0.825461,-1.099574 3.778389,0.10996 3.63833,1.405756 2.489993,1.218125 5.123915,2.126257 7.560841,3.455521 0.804318,1.295928 3.247128,0.833036 3.671356,2.260982 -1.634518,0.115953 -3.009293,-1.002229 -4.59071,-1.183992 2.052913,1.09157 4.235481,1.925538 6.25076,3.088736 -3.780117,-0.886874 -7.266956,-2.643721 -10.851838,-4.082574 -0.617343,-0.625776 -2.862195,-1.396172 -3.010725,-1.172266 3.434999,1.960646 7.245936,3.163331 10.696447,5.079793 1.730679,1.021697 3.441875,2.551007 5.544903,2.529746 0.890689,0.478933 1.645411,1.237876 2.610616,0.894502 0.95404,0.264045 0.643471,0.734091 -0.159137,0.738969 0.763606,0.530654 1.846605,1.606082 0.172393,0.846039 -1.853489,-0.420275 1.146014,0.889423 1.585351,1.06967 0.631796,0.715952 3.636334,1.045968 1.931833,-0.229399 -1.04507,-0.29825 -1.289802,-1.118858 -0.111948,-0.295146 0.769998,0.114409 0.860366,-0.500692 1.92821,0.07766 0.731598,0.125672 1.955964,0.642588 0.461313,0.386799 -2.077435,-0.410614 0.341454,0.884511 0.454528,1.58596 0.817455,0.642136 4.656125,1.741936 2.682486,2.831277 -1.762502,-0.419825 -3.039349,-2.078441 -4.870479,-2.278462 -0.301493,-0.0274 2.160528,1.616116 0.367376,0.907369 -1.793502,-1.136317 -4.181419,-1.289639 -5.680121,-2.86414 -0.05967,-0.118671 2.904127,0.741335 0.917306,-0.171195 -1.183466,-0.365308 -2.346247,-1.205649 -3.560007,-1.255399 0.748342,0.670668 1.300566,0.973994 0.01633,0.564605 -0.927586,-0.390144 -1.604298,-0.264931 -0.344645,0.336995 1.525346,0.709615 4.391199,2.326697 4.785537,3.080844 -2.784957,-0.828586 -5.290454,-2.448566 -8.159073,-3.01887 -0.954034,1.045714 2.580013,0.544555 0.708986,1.317167 -0.488988,1.168063 2.220222,1.254017 1.558295,2.461608 0.652107,0.147122 2.646521,1.773493 0.84818,0.843805 -0.718643,-0.682487 -2.998436,-0.84547 -1.019268,0.02245 2.179176,0.79297 4.153905,2.463057 6.5721,2.362216 1.751414,-0.09252 3.382971,0.955268 4.910631,1.736234 0.934207,0.478833 1.433501,1.103031 0.09245,0.600047 -2.346243,-0.515899 -4.837815,-0.878799 -6.832607,-2.325911 -4.08006,-1.75479 -8.175616,-3.473443 -12.28477,-5.158838 -1.588551,-1.242447 -3.918032,-1.133284 -5.608114,-2.34448 C 15.461204,25.176896 12.148224,23.60308 8.7101008,22.335156 7.5975639,23.610598 6.5311476,20.483805 5.6487405,21.820062 4.1750385,21.514125 2.5067539,21.737637 1.2256238,20.80404 z"
       style="fill:none;stroke:#eeeeec;stroke-width:2;stroke-miterlimit:4;stroke-dasharray:none" />
    <path
       style="fill:#204a87"
       d="M 1.2256238,20.804039 C 0.36458935,19.045873 1.5986553,16.966256 0.93870696,15.194894 1.4986406,13.146957 1.8775606,10.674137 3.7849786,9.4419856 c 2.6656367,-1.0205109 5.5459905,0.036736 8.0032434,1.1501384 1.567074,-0.516533 3.835686,1.676905 4.167834,1.895385 0.825461,-1.099573 3.778388,0.10996 3.638329,1.405756 2.489993,1.218125 5.123915,2.126257 7.560842,3.455521 0.804317,1.295928 3.247127,0.833037 3.671356,2.260983 -1.634519,0.115953 -3.009294,-1.002229 -4.590711,-1.183993 2.052913,1.09157 4.235482,1.925538 6.250761,3.088736 -3.780118,-0.886873 -7.266956,-2.643721 -10.851838,-4.082574 -0.617343,-0.625775 -2.862196,-1.396171 -3.010725,-1.172266 3.434999,1.960647 7.245936,3.163331 10.696446,5.079793 1.73068,1.021698 3.441876,2.551008 5.544903,2.529746 0.89069,0.478933 1.645412,1.237876 2.610617,0.894503 0.95404,0.264045 0.643471,0.73409 -0.159138,0.738968 0.763606,0.530655 1.846606,1.606082 0.172394,0.846039 -1.853489,-0.420275 1.146014,0.889423 1.585351,1.06967 0.631795,0.715952 3.636333,1.045968 1.931832,-0.229399 -1.04507,-0.29825 -1.289801,-1.118858 -0.111947,-0.295146 0.769998,0.114409 0.860365,-0.500692 1.92821,0.07766 0.731597,0.125672 1.955964,0.642588 0.461312,0.386799 -2.077434,-0.410614 0.341454,0.884511 0.454528,1.58596 0.817455,0.642136 4.656125,1.741936 2.682486,2.831277 -1.762502,-0.419825 -3.039348,-2.078441 -4.870478,-2.278462 -0.301494,-0.0274 2.160528,1.616116 0.367376,0.907369 -1.793503,-1.136317 -4.181419,-1.289639 -5.680121,-2.86414 -0.05967,-0.118671 2.904126,0.741335 0.917306,-0.171195 -1.183466,-0.365308 -2.346247,-1.205649 -3.560008,-1.255399 0.748342,0.670668 1.300567,0.973994 0.01633,0.564605 -0.927586,-0.390144 -1.604299,-0.264931 -0.344645,0.336995 1.525346,0.709615 4.391199,2.326697 4.785536,3.080844 -2.784957,-0.828586 -5.290454,-2.448566 -8.159072,-3.018869 -0.954034,1.045713 2.580012,0.544554 0.708985,1.317166 -0.488987,1.168063 2.220222,1.254017 1.558296,2.461608 0.652107,0.147121 2.646521,1.773493 0.84818,0.843805 -0.718643,-0.682487 -2.998436,-0.84547 -1.019268,0.02244 2.179176,0.792971 4.153905,2.463058 6.572099,2.362217 1.751414,-0.09252 3.382972,0.955267 4.910632,1.736234 0.934207,0.478833 1.433501,1.10303 0.09245,0.600047 -2.346242,-0.5159 -4.837814,-0.878799 -6.832607,-2.325912 -4.08006,-1.754789 -8.175615,-3.473442 -12.284769,-5.158837 -1.588551,-1.242447 -3.918032,-1.133284 -5.608115,-2.344479 -3.37796,-1.414684 -6.69094,-2.9885 -10.1290633,-4.256423 C 7.5975638,23.610597 6.5311476,20.483804 5.6487405,21.820061 4.1750385,21.514125 2.5067539,21.737636 1.2256238,20.804039 z"
       id="path88959"
       inkscape:connector-curvature="0" />
    <path
       style="fill:#729fcf"
       d="m 30.488415,30.932476 c 0.08205,0.0044 0.138368,-0.04862 0.125152,-0.117959 -0.02864,-0.150201 -2.084628,-0.941574 -2.426625,-0.934045 -0.209865,0.0046 -0.205505,0.02436 0.04252,0.192331 0.152012,0.102941 0.316294,0.214692 0.365073,0.248331 0.128864,0.08885 1.71789,0.601783 1.893883,0.611337 z"
       id="path88957"
       inkscape:connector-curvature="0" />
    <path
       style="fill:#729fcf"
       d="m 27.438539,29.715226 c 0.190825,-0.14587 -0.35655,-0.495983 -1.088399,-0.696166 -0.677065,-0.185204 -0.825888,-0.177029 -0.728942,0.04002 0.06685,0.14968 1.705795,0.741415 1.817341,0.656151 z"
       id="path88955"
       inkscape:connector-curvature="0" />
    <path
       style="fill:#729fcf"
       d="m 27.078381,28.456392 c -0.05883,-0.05468 -0.172655,-0.09822 -0.252934,-0.09673 -0.08028,0.0014 -0.03215,0.04623 0.10697,0.09944 0.139114,0.05321 0.204799,0.05199 0.145964,-0.0027 z"
       id="path88953"
       inkscape:connector-curvature="0" />
    <path
       style="fill:#729fcf"
       d="m 24.77697,26.967923 c 0.241615,0.03527 0.350613,0.02311 0.24221,-0.02703 -0.108418,-0.05009 -0.284859,-0.195438 -0.392128,-0.322894 -0.144535,-0.171742 -0.265925,-0.227305 -0.46882,-0.214588 -0.440422,0.0276 -0.482709,0.408558 -0.05198,0.468297 0.127278,0.01765 0.429097,0.06095 0.670719,0.09622 z"
       id="path88951"
       inkscape:connector-curvature="0" />
    <path
       style="fill:#729fcf"
       d="m 22.383814,25.871607 c 0.268692,-0.01075 0.32563,-0.169779 0.09264,-0.258883 -0.100331,-0.03837 -0.32063,-0.284783 -0.489558,-0.547581 l -0.307141,-0.477813 -0.684065,0.05318 c -0.63275,0.0492 -0.746766,0.02377 -1.519904,-0.338944 -0.509911,-0.239226 -0.910347,-0.374606 -1.026906,-0.347211 -0.368441,0.08662 -0.01806,0.360079 0.774695,0.604629 0.522434,0.161161 0.783476,0.290577 0.876591,0.434554 0.142672,0.22063 1.893093,0.893665 2.283612,0.878023 z"
       id="path88949"
       inkscape:connector-curvature="0" />
    <path
       style="fill:#729fcf"
       d="m 16.032033,23.148018 c 0.05565,-0.04254 0.03017,-0.104508 -0.05654,-0.137676 -0.08675,-0.03318 -0.17513,-0.01475 -0.196391,0.04093 -0.02126,0.0557 0.0042,0.117649 0.05654,0.137676 0.05236,0.02003 0.140736,0.0017 0.196392,-0.04094 z"
       id="path88947"
       inkscape:connector-curvature="0" />
    <path
       style="fill:#729fcf"
       d="m 17.043771,23.534963 c 0.05921,-0.04525 -0.02972,-0.127419 -0.214276,-0.198001 -0.184545,-0.07058 -0.305558,-0.0687 -0.291593,0.0045 0.01313,0.06884 0.109552,0.157949 0.214274,0.198 0.104723,0.04006 0.235938,0.03802 0.291595,-0.0045 z"
       id="path88945"
       inkscape:connector-curvature="0" />
    <path
       style="fill:#729fcf"
       d="m 13.940615,22.038483 c 0.145614,-0.262713 -0.152759,-1.101103 -0.376644,-1.058337 -0.08598,0.01642 -0.167129,0.128522 -0.180336,0.249108 -0.01851,0.16903 -0.11613,0.222089 -0.426174,0.231643 -0.221185,0.0068 -0.41012,0.03327 -0.419858,0.05877 -0.03575,0.09364 0.576076,0.496056 0.926753,0.609548 0.284664,0.09212 0.385568,0.0729 0.476262,-0.09073 z"
       id="path88943"
       inkscape:connector-curvature="0" />
    <path
       style="fill:#729fcf"
       d="m 12.360971,21.321253 c 0.04802,-0.278882 -0.210634,-0.565619 -0.388562,-0.43075 -0.0798,0.0605 -0.250568,0.0871 -0.379474,0.05911 -0.128907,-0.02798 -0.325888,-0.03576 -0.437736,-0.01729 -0.144359,0.02384 -0.0034,0.111079 0.485807,0.300687 0.586098,0.227142 0.693774,0.240347 0.719965,0.08823 z"
       id="path88941"
       inkscape:connector-curvature="0" />
    <path
       style="fill:#729fcf"
       d="m 8.7707771,19.435853 c 0.252551,4.21e-4 0.2982388,-0.03095 0.2112011,-0.145015 -0.061086,-0.08005 -0.083407,-0.153622 -0.049605,-0.163482 0.033804,-0.0098 0.2151908,-0.04813 0.4030857,-0.08505 C 9.646533,18.981187 9.6759935,18.946295 9.664883,18.65218 9.6414766,18.03253 9.5372033,17.900898 8.7693116,17.52161 8.11751,17.199666 7.9742809,17.165941 7.448911,17.210726 c -0.5206927,0.04438 -0.5937277,0.08228 -0.6273911,0.32555 -0.020953,0.151424 -0.028547,0.296698 -0.016875,0.322832 0.067786,0.151761 0.7870541,0.527178 1.2189677,0.63623 0.4840176,0.122208 0.4986024,0.135848 0.3571034,0.333906 -0.081137,0.113571 -0.2531309,0.196309 -0.3822032,0.183862 -0.2058273,-0.01985 -0.2005496,-1.6e-5 0.042941,0.161306 0.1526883,0.101164 0.3067414,0.201253 0.3423367,0.222419 0.035608,0.02113 0.209739,0.03872 0.3869865,0.03902 z"
       id="path88939"
       inkscape:connector-curvature="0" />
    <path
       style="fill:#729fcf"
       d="m 12.840077,19.988897 c 0.122039,-0.211581 0.191835,-0.423223 0.155114,-0.470312 -0.03672,-0.04708 -0.564053,-0.294499 -1.171855,-0.549789 l -1.10509,-0.46418 -0.474241,0.250155 -0.4742425,0.250158 0.2581065,0.334032 c 0.199564,0.258273 0.433105,0.401063 1.02967,0.629557 0.539857,0.20682 0.790733,0.351948 0.835396,0.483435 0.09939,0.292599 0.673058,0.01214 0.947137,-0.463055 z"
       id="path88937"
       inkscape:connector-curvature="0" />
    <path
       style="fill:#729fcf"
       d="m 18.220048,22.69569 c 0.272313,0.0081 0.426635,0.06955 0.609719,0.242921 0.159903,0.151419 0.322399,0.224093 0.467366,0.209045 0.137802,-0.01431 0.768914,0.229786 1.661135,0.642496 1.595187,0.737871 1.987009,0.838562 2.101029,0.539905 0.05667,-0.148445 -0.01173,-0.245616 -0.281924,-0.400437 -0.196212,-0.112439 -0.509168,-0.314562 -0.695453,-0.449173 -0.233937,-0.169042 -0.562105,-0.288348 -1.060955,-0.38571 -0.931285,-0.181758 -2.102556,-0.741924 -2.424793,-1.159676 -0.212142,-0.275019 -0.321961,-0.329803 -0.888359,-0.443168 -0.355464,-0.07114 -0.967415,-0.244895 -1.359893,-0.386116 -0.69522,-0.250155 -1.132276,-0.224455 -0.652348,0.03835 0.13186,0.0722 0.288026,0.224771 0.347036,0.339034 0.05901,0.11426 0.467807,0.394941 0.908434,0.623732 0.440629,0.228785 0.815995,0.449236 0.834147,0.489878 0.04187,0.09374 0.0093,0.08634 0.43485,0.09893 z"
       id="path88935"
       inkscape:connector-curvature="0" />
    <path
       style="fill:#729fcf"
       d="m 3.4963284,16.780494 c 0.1584149,-0.102621 0.1984447,-0.08739 0.4160685,0.158468 0.3609962,0.407682 1.4966093,0.816078 1.8974455,0.682352 0.2769137,-0.0924 0.3022398,-0.128092 0.216081,-0.304571 C 5.9722436,17.206793 5.7546562,16.987122 5.5423945,16.828585 5.2021191,16.574434 5.11532,16.550301 4.808659,16.624567 4.5367557,16.690416 4.4112128,16.66523 4.2333888,16.509156 4.0416835,16.340897 3.9305671,16.333552 3.5265824,16.462391 c -0.2636384,0.08408 -0.4923905,0.187049 -0.5083395,0.22882 -0.052973,0.138738 0.2999928,0.204665 0.4780804,0.0893 z"
       id="path88933"
       inkscape:connector-curvature="0" />
    <path
       style="fill:#729fcf"
       d="m 14.591531,20.853602 c 0.161548,-0.08218 0.241058,-0.184091 0.205474,-0.263356 -0.06877,-0.153193 -0.853264,-0.524152 -0.984382,-0.465486 -0.156968,0.07024 -0.09882,0.396923 0.104116,0.584985 0.291756,0.27036 0.386441,0.290544 0.674793,0.143853 z"
       id="path88931"
       inkscape:connector-curvature="0" />
    <path
       style="fill:#729fcf"
       d="m 31.944742,26.187608 c 0.0073,-0.168087 -0.244422,-0.344087 -0.491666,-0.343738 -0.274696,3.86e-4 -0.158149,0.240275 0.179468,0.369398 0.199793,0.07642 0.308139,0.0675 0.312198,-0.02566 z"
       id="path88929"
       inkscape:connector-curvature="0" />
    <path
       style="fill:#729fcf"
       d="m 40.84331,29.224515 c 0.06098,0.0069 0.02692,-0.0844 -0.07572,-0.202838 -0.139035,-0.160467 -0.276512,-0.218001 -0.539511,-0.22579 -0.194113,-0.0058 -0.699252,-0.142097 -1.122526,-0.303003 -0.439009,-0.166881 -0.727101,-0.23549 -0.670673,-0.159704 0.08467,0.113727 2.088289,0.855236 2.408422,0.891336 z"
       id="path88927"
       inkscape:connector-curvature="0" />
    <path
       style="fill:#729fcf"
       d="m 46.123009,30.884847 c 0.04508,-0.118087 -0.629726,-0.463863 -0.904508,-0.463475 -0.162562,2.37e-4 -0.172642,0.02077 -0.07564,0.15415 0.142356,0.195721 0.928768,0.443904 0.980147,0.309324 z"
       id="path88925"
       inkscape:connector-curvature="0" />
    <path
       style="fill:#729fcf"
       d="m 31.539873,25.147699 c 0.232816,-0.04723 -0.109644,-0.284749 -0.786967,-0.545818 -0.492159,-0.189777 -0.656213,-0.17265 -0.55339,0.05756 0.0601,0.134574 1.141681,0.528575 1.340357,0.488267 z"
       id="path88923"
       inkscape:connector-curvature="0" />
    <path
       style="fill:#729fcf"
       d="m 26.235054,22.912418 c 0.156765,-0.192491 -0.465821,-0.583358 -1.081224,-0.678801 -0.573931,-0.08902 -0.758861,-0.01086 -0.471692,0.199347 0.306506,0.224352 1.468491,0.583117 1.552916,0.479454 z"
       id="path88921"
       inkscape:connector-curvature="0" />
    <path
       style="fill:#729fcf"
       d="m 28.448536,23.806017 c 0.0075,-0.161949 -0.336109,-0.382972 -0.594959,-0.382603 -0.291162,4.11e-4 -0.145742,0.24438 0.231716,0.38874 0.240017,0.0918 0.35875,0.08979 0.363243,-0.0061 z"
       id="path88919"
       inkscape:connector-curvature="0" />
    <path
       style="fill:#729fcf"
       d="m 20.079068,20.291856 c 0.336657,0.06442 0.401831,0.05629 0.211857,-0.02642 -0.150911,-0.0657 -0.317551,-0.240419 -0.370315,-0.388254 -0.113983,-0.319358 -0.288617,-0.408713 -0.449064,-0.229776 -0.07617,0.08495 -0.253957,0.07695 -0.515821,-0.0232 -0.219778,-0.08405 -0.495565,-0.151795 -0.612859,-0.150538 -0.509975,0.0055 0.858035,0.650153 1.736202,0.81819 z"
       id="path88917"
       inkscape:connector-curvature="0" />
    <path
       style="fill:#729fcf"
       d="m 23.010941,21.419666 c 0.04438,-0.116232 -0.172926,-0.310659 -0.477302,-0.427069 -0.246849,-0.09441 -0.442855,-0.02537 -0.372863,0.131336 0.06139,0.137454 0.81104,0.398215 0.850164,0.295736 z"
       id="path88915"
       inkscape:connector-curvature="0" />
    <path
       style="fill:#729fcf"
       d="m 23.622122,21.640993 c 0.02126,-0.0557 -0.02963,-0.127383 -0.113101,-0.159306 -0.08347,-0.03192 -0.169158,-0.01247 -0.190421,0.04322 -0.02126,0.0557 0.02963,0.127383 0.113101,0.159307 0.08347,0.03192 0.169159,0.01247 0.190421,-0.04323 z"
       id="path88913"
       inkscape:connector-curvature="0" />
    <path
       style="fill:#729fcf"
       d="m 29.482076,21.738478 c -0.04507,-0.100896 -1.673005,-0.739477 -1.772113,-0.69513 -0.04782,0.0214 0.337977,0.201426 0.857336,0.400057 0.519358,0.198631 0.931008,0.331414 0.914776,0.295074 z"
       id="path88911"
       inkscape:connector-curvature="0" />
    <path
       style="fill:#729fcf"
       d="m 13.474292,14.206854 c 0.0082,-0.02136 -0.386552,-0.183318 -0.877121,-0.359923 l -0.891946,-0.321095 0.635308,0.309983 c 0.600919,0.293205 1.100993,0.45686 1.133756,0.37104 z"
       id="path88909"
       inkscape:connector-curvature="0" />
    <path
       style="fill:#729fcf"
       d="m 17.438397,15.805565 c 0.192351,-0.0015 0.179508,-0.03186 -0.08384,-0.197984 -0.396099,-0.249875 -1.725464,-0.757638 -2.280324,-0.870982 -0.342218,-0.06991 -0.392597,-0.05693 -0.257194,0.06627 0.218724,0.199021 2.325886,1.005031 2.621367,1.002671 z"
       id="path88907"
       inkscape:connector-curvature="0" />
    <path
       style="fill:#729fcf"
       d="m 21.410282,16.501218 c 0.02126,-0.0557 -0.04971,-0.135063 -0.157718,-0.176369 -0.108006,-0.04131 -0.241912,-0.04029 -0.297564,0.0023 -0.05738,0.04387 0.01088,0.120211 0.157717,0.17637 0.142397,0.05446 0.276302,0.05345 0.297565,-0.0023 z"
       id="path88905"
       inkscape:connector-curvature="0" />
    <path
       style="fill:#729fcf"
       d="m 37.796735,33.560938 c -0.01313,-0.06884 -0.2689,-0.218891 -0.568383,-0.33343 -0.591207,-0.22611 -0.768215,-0.472512 -0.299081,-0.416328 0.346752,0.04152 0.943283,0.476699 1.038763,0.757781 0.04282,0.126044 0.02815,0.184308 -0.03985,0.158304 -0.05917,-0.02263 -0.11833,-0.09748 -0.13146,-0.166328 z"
       id="path88903"
       inkscape:connector-curvature="0" />
    <path
       style="fill:#729fcf"
       d="m 35.425784,31.733417 c -0.09044,-0.124081 -0.05444,-0.152954 0.190287,-0.152545 0.347331,5.82e-4 1.229885,0.456986 1.185275,0.61295 -0.03915,0.136906 -1.230932,-0.261986 -1.375561,-0.460408 z"
       id="path88901"
       inkscape:connector-curvature="0" />
    <path
       style="fill:#729fcf"
       d="m 32.683994,30.574245 c -0.06825,-0.35789 1.195827,-0.115843 1.566527,0.299962 0.130892,0.146814 0.221035,0.311342 0.200317,0.365607 -0.04733,0.123966 -1.737714,-0.512803 -1.766845,-0.665566 z"
       id="path88899"
       inkscape:connector-curvature="0" />
    <path
       style="fill:#729fcf"
       d="m 41.054948,33.450774 c 0.106408,0.01165 0.288871,0.08038 0.40547,0.152752 0.116606,0.07236 0.02955,0.06281 -0.193469,-0.02119 -0.222987,-0.08407 -0.318411,-0.143209 -0.212008,-0.131551 z"
       id="path88897"
       inkscape:connector-curvature="0" />
    <path
       style="fill:#729fcf"
       d="m 40.54282,32.290195 c -0.08696,-0.118856 -0.03696,-0.127056 0.209151,-0.03428 0.177866,0.06713 0.334179,0.178253 0.347308,0.247102 0.03059,0.160438 -0.405352,-0.0063 -0.556459,-0.21282 z"
       id="path88895"
       inkscape:connector-curvature="0" />
    <path
       style="fill:#729fcf"
       d="m 38.682346,30.471256 c -0.110874,-0.3264 0.164201,-0.375637 0.614694,-0.110019 0.408238,0.240702 0.439269,0.325047 0.164784,0.447867 -0.236744,0.105934 -0.696406,-0.09329 -0.779478,-0.337846 z"
       id="path88869"
       inkscape:connector-curvature="0" />
    <path
       style="fill:#729fcf"
       d="m 40.975894,25.840985 c -0.335456,-0.202251 -0.304224,-0.200381 0.283391,0.01696 0.45282,0.16749 0.586352,0.247294 0.424825,0.253903 -0.129564,0.0053 -0.257091,-0.0024 -0.283392,-0.01696 -0.02631,-0.01461 -0.21747,-0.128888 -0.424824,-0.253901 z"
       id="path88867"
       inkscape:connector-curvature="0" />
    <path
       style="fill:#729fcf"
       d="m 45.933579,27.666962 c 0.04647,-0.02079 0.135106,0.009 0.196967,0.06618 0.06837,0.06319 0.03524,0.07803 -0.08449,0.0378 -0.108334,-0.03639 -0.158951,-0.08318 -0.112486,-0.103973 z"
       id="path88865"
       inkscape:connector-curvature="0" />
    <path
       style="fill:#729fcf"
       d="m 37.755684,24.273629 c -0.03023,-0.158518 0.486145,-0.07743 0.768898,0.120752 0.17538,0.122918 0.193225,0.175319 0.06833,0.200642 -0.223843,0.04539 -0.810213,-0.179706 -0.837226,-0.321406 z"
       id="path88863"
       inkscape:connector-curvature="0" />
    <path
       style="fill:#729fcf"
       d="m 31.858931,20.071611 c -0.06755,-0.201806 -0.04553,-0.203976 0.241267,-0.02378 0.173587,0.109069 0.366564,0.21859 0.428841,0.243386 0.176771,0.07042 -0.244728,0.132949 -0.430503,0.0639 -0.09087,-0.03385 -0.198714,-0.161362 -0.239605,-0.283507 z"
       id="path88861"
       inkscape:connector-curvature="0" />
    <path
       style="fill:#729fcf"
       d="m 37.422644,22.323015 c 0.04646,-0.02079 0.135101,0.009 0.196967,0.06618 0.06837,0.06319 0.03523,0.07802 -0.08449,0.0378 -0.108334,-0.03639 -0.158953,-0.08318 -0.112487,-0.103971 z"
       id="path88859"
       inkscape:connector-curvature="0" />
  </g>
</svg>
