<?xml version="1.0" encoding="UTF-8" standalone="no"?>
<!-- Generator: Adobe Illustrator 15.0.0, SVG Export Plug-In . SVG Version: 6.00 Build 0)  -->

<svg
   xmlns:dc="http://purl.org/dc/elements/1.1/"
   xmlns:cc="http://creativecommons.org/ns#"
   xmlns:rdf="http://www.w3.org/1999/02/22-rdf-syntax-ns#"
   xmlns:svg="http://www.w3.org/2000/svg"
   xmlns="http://www.w3.org/2000/svg"
   xmlns:xlink="http://www.w3.org/1999/xlink"
   xmlns:sodipodi="http://sodipodi.sourceforge.net/DTD/sodipodi-0.dtd"
   xmlns:inkscape="http://www.inkscape.org/namespaces/inkscape"
   version="1.0"
   id="Layer_1"
   x="0px"
   y="0px"
   width="48"
   height="48"
   viewBox="0 0 612 792"
   enable-background="new 0 0 612 792"
   xml:space="preserve"
   sodipodi:version="0.32"
   inkscape:version="0.48.5 r10040"
   sodipodi:docname="plant_guides.svg"
   inkscape:output_extension="org.inkscape.output.svg.inkscape"><metadata
     id="metadata9213"><rdf:RDF><cc:Work
         rdf:about=""><dc:format>image/svg+xml</dc:format><dc:type
           rdf:resource="http://purl.org/dc/dcmitype/StillImage" /><dc:title></dc:title></cc:Work></rdf:RDF></metadata><defs
     id="defs9211"><linearGradient
       id="linearGradient71044"><stop
         style="stop-color:#465052;stop-opacity:1;"
         offset="0"
         id="stop71046" /><stop
         id="stop71052"
         offset="0.49691695"
         style="stop-color:#353b3d;stop-opacity:1;" /><stop
         style="stop-color:#000000;stop-opacity:1;"
         offset="1"
         id="stop71048" /></linearGradient><inkscape:perspective
       sodipodi:type="inkscape:persp3d"
       inkscape:vp_x="0 : 396 : 1"
       inkscape:vp_y="0 : 1000 : 0"
       inkscape:vp_z="612 : 396 : 1"
       inkscape:persp3d-origin="306 : 264 : 1"
       id="perspective9215" /><linearGradient
       inkscape:collect="always"
       xlink:href="#SVGID_1_"
       id="linearGradient9271"
       gradientUnits="userSpaceOnUse"
       x1="340.35349"
       y1="475.4209"
       x2="335.0961"
       y2="457.89621" /><radialGradient
       inkscape:collect="always"
       xlink:href="#SVGID_2_"
       id="radialGradient9273"
       gradientUnits="userSpaceOnUse"
       gradientTransform="matrix(1.0172,0,0,1,-5.6046,0)"
       cx="339.36719"
       cy="453.95801"
       r="95.967102" /><radialGradient
       inkscape:collect="always"
       xlink:href="#SVGID_3_"
       id="radialGradient9275"
       gradientUnits="userSpaceOnUse"
       gradientTransform="matrix(1.0172,0,0,1,-5.6046,0)"
       cx="351.67191"
       cy="481.78809"
       r="33.500301" /><radialGradient
       inkscape:collect="always"
       xlink:href="#SVGID_4_"
       id="radialGradient9277"
       gradientUnits="userSpaceOnUse"
       gradientTransform="matrix(1.0172,0,0,1,-5.6046,0)"
       cx="359.0264"
       cy="475.63089"
       r="18.771299" /><radialGradient
       inkscape:collect="always"
       xlink:href="#SVGID_5_"
       id="radialGradient9279"
       gradientUnits="userSpaceOnUse"
       gradientTransform="matrix(0.4811,0.8811,-0.3137,0.1655,327.0887,72.2611)"
       cx="352.28909"
       cy="458.5654"
       r="26.957899" /><radialGradient
       inkscape:collect="always"
       xlink:href="#SVGID_6_"
       id="radialGradient9281"
       gradientUnits="userSpaceOnUse"
       gradientTransform="matrix(-0.5144,0.8627,-0.1755,-0.1011,585.9231,209.3559)"
       cx="334.40329"
       cy="452.11621"
       r="21.009701" /><radialGradient
       inkscape:collect="always"
       xlink:href="#SVGID_7_"
       id="radialGradient9283"
       gradientUnits="userSpaceOnUse"
       gradientTransform="matrix(1.007,-0.1414,0.1007,0.693,-51.0734,196.5697)"
       cx="335.6543"
       cy="485.6152"
       r="26.516899" /><radialGradient
       inkscape:collect="always"
       xlink:href="#SVGID_8_"
       id="radialGradient9285"
       gradientUnits="userSpaceOnUse"
       gradientTransform="matrix(0.9863,-0.2447,0.1742,0.6787,-78.438,239.2968)"
       cx="347.9873"
       cy="479.82419"
       r="13.7942" /><linearGradient
       id="SVGID_1_"
       gradientUnits="userSpaceOnUse"
       x1="340.35349"
       y1="475.4209"
       x2="335.0961"
       y2="457.89621"><stop
         offset="0"
         style="stop-color:#D8B08D;stop-opacity:0.75"
         id="stop9123" /><stop
         offset="0.2025"
         style="stop-color:#E9CFB5;stop-opacity:0.3852"
         id="stop9125" /><stop
         offset="0.7485"
         style="stop-color:#FFFFFF;stop-opacity:0"
         id="stop9127" /></linearGradient><radialGradient
       id="SVGID_2_"
       cx="339.36719"
       cy="453.95801"
       r="95.967102"
       gradientTransform="matrix(1.0172,0,0,1,-5.6046,0)"
       gradientUnits="userSpaceOnUse"><stop
         offset="0"
         style="stop-color:#CDA183;stop-opacity:0.75"
         id="stop9132" /><stop
         offset="0.1411"
         style="stop-color:#E9CFB5;stop-opacity:0.3852"
         id="stop9134" /><stop
         offset="0.6074"
         style="stop-color:#FFFFFF;stop-opacity:0"
         id="stop9136" /></radialGradient><radialGradient
       id="SVGID_3_"
       cx="351.67191"
       cy="481.78809"
       r="33.500301"
       gradientTransform="matrix(1.0172,0,0,1,-5.6046,0)"
       gradientUnits="userSpaceOnUse"><stop
         offset="0"
         style="stop-color:#161002;stop-opacity:0.89"
         id="stop9143" /><stop
         offset="0.3313"
         style="stop-color:#3F2E01;stop-opacity:0.3852"
         id="stop9145" /><stop
         offset="0.7485"
         style="stop-color:#4C2F04;stop-opacity:0"
         id="stop9147" /></radialGradient><radialGradient
       id="SVGID_4_"
       cx="359.0264"
       cy="475.63089"
       r="18.771299"
       gradientTransform="matrix(1.0172,0,0,1,-5.6046,0)"
       gradientUnits="userSpaceOnUse"><stop
         offset="0.0368"
         style="stop-color:#443A22"
         id="stop9156" /><stop
         offset="0.4294"
         style="stop-color:#1F1000;stop-opacity:0.3852"
         id="stop9158" /><stop
         offset="1"
         style="stop-color:#4E3107;stop-opacity:0"
         id="stop9160" /></radialGradient><radialGradient
       id="SVGID_5_"
       cx="352.28909"
       cy="458.5654"
       r="26.957899"
       gradientTransform="matrix(0.4811,0.8811,-0.3137,0.1655,327.0887,72.2611)"
       gradientUnits="userSpaceOnUse"><stop
         offset="0.0368"
         style="stop-color:#8A756F"
         id="stop9165" /><stop
         offset="0.4294"
         style="stop-color:#633812;stop-opacity:0.3852"
         id="stop9167" /><stop
         offset="1"
         style="stop-color:#6F4C39;stop-opacity:0"
         id="stop9169" /></radialGradient><radialGradient
       id="SVGID_6_"
       cx="334.40329"
       cy="452.11621"
       r="21.009701"
       gradientTransform="matrix(-0.5144,0.8627,-0.1755,-0.1011,585.9231,209.3559)"
       gradientUnits="userSpaceOnUse"><stop
         offset="0"
         style="stop-color:#ECE7E8;stop-opacity:0.52"
         id="stop9174" /><stop
         offset="0.2025"
         style="stop-color:#DED8CD;stop-opacity:0.3852"
         id="stop9176" /><stop
         offset="0.7485"
         style="stop-color:#603E14;stop-opacity:0"
         id="stop9178" /></radialGradient><radialGradient
       id="SVGID_7_"
       cx="335.6543"
       cy="485.6152"
       r="26.516899"
       gradientTransform="matrix(1.007,-0.1414,0.1007,0.693,-51.0734,196.5697)"
       gradientUnits="userSpaceOnUse"><stop
         offset="0"
         style="stop-color:#CD925D"
         id="stop9197" /><stop
         offset="0.7485"
         style="stop-color:#FFFFFF;stop-opacity:0"
         id="stop9199" /></radialGradient><radialGradient
       id="SVGID_8_"
       cx="347.9873"
       cy="479.82419"
       r="13.7942"
       gradientTransform="matrix(0.9863,-0.2447,0.1742,0.6787,-78.438,239.2968)"
       gradientUnits="userSpaceOnUse"><stop
         offset="0"
         style="stop-color:#CD925D"
         id="stop9204" /><stop
         offset="0.7485"
         style="stop-color:#FFFFFF;stop-opacity:0"
         id="stop9206" /></radialGradient></defs><sodipodi:namedview
     inkscape:window-height="1475"
     inkscape:window-width="2560"
     inkscape:pageshadow="2"
     inkscape:pageopacity="0.0"
     guidetolerance="10.0"
     gridtolerance="10.0"
     objecttolerance="10.0"
     borderopacity="1.0"
     bordercolor="#666666"
     pagecolor="#ffffff"
     id="base"
     showgrid="false"
     inkscape:zoom="18.666667"
     inkscape:cx="10.918344"
     inkscape:cy="20.698778"
     inkscape:window-x="0"
     inkscape:window-y="0"
     inkscape:current-layer="Layer_1"
     inkscape:window-maximized="1" /><path
     style="fill:none;stroke:#c4a000;stroke-width:33;stroke-linecap:round;stroke-linejoin:miter;stroke-miterlimit:4;stroke-opacity:1;stroke-dasharray:none"
     d="m 448.73902,259.82784 c 68.8272,5.79171 128.38232,66.5718 170.09367,103.28635"
     id="path71155"
     inkscape:connector-curvature="0"
     sodipodi:nodetypes="cc" /><path
     sodipodi:nodetypes="cc"
     inkscape:connector-curvature="0"
     id="path71157"
     d="M 410.82639,172.47444 C 464.24333,127.32858 513.5665,113.2205 560.21887,119.36147"
     style="fill:none;stroke:#c4a000;stroke-width:33;stroke-linecap:round;stroke-linejoin:miter;stroke-miterlimit:4;stroke-opacity:1;stroke-dasharray:none" /><path
     sodipodi:nodetypes="cc"
     inkscape:connector-curvature="0"
     id="path71159"
     d="M 274.67457,103.23523 C 265.49309,52.726583 253.57451,26.223622 239.87028,15.381976"
     style="fill:none;stroke:#c4a000;stroke-width:33;stroke-linecap:round;stroke-linejoin:miter;stroke-miterlimit:4;stroke-opacity:1;stroke-dasharray:none" /><path
     sodipodi:nodetypes="cc"
     inkscape:connector-curvature="0"
     id="path71141"
     d="m 448.73902,259.82784 c 68.8272,5.79171 128.38232,66.5718 170.09367,103.28635"
     style="fill:none;stroke:#edd400;stroke-width:16.5px;stroke-linecap:round;stroke-linejoin:miter;stroke-opacity:1" /><path
     style="fill:none;stroke:#edd400;stroke-width:16.5px;stroke-linecap:round;stroke-linejoin:miter;stroke-opacity:1"
     d="M 410.82639,172.47444 C 464.24333,127.32858 513.5665,113.2205 560.21887,119.36147"
     id="path71137"
     inkscape:connector-curvature="0"
     sodipodi:nodetypes="cc" /><path
     style="fill:none;stroke:#edd400;stroke-width:16.5px;stroke-linecap:round;stroke-linejoin:miter;stroke-opacity:1"
     d="M 274.67457,103.23523 C 265.49309,52.726583 253.57451,26.223622 239.87028,15.381976"
     id="path71133"
     inkscape:connector-curvature="0"
     sodipodi:nodetypes="cc" /><path
     sodipodi:nodetypes="cc"
     inkscape:connector-curvature="0"
     id="path71080"
     d="m 429.78694,211.06242 c 63.71459,-28.84135 115.01545,-28.94274 158.21758,-10.29418"
     style="fill:none;stroke:#a40000;stroke-width:33;stroke-linecap:round;stroke-linejoin:miter;stroke-miterlimit:4;stroke-opacity:1;stroke-dasharray:none" /><path
     style="fill:none;stroke:#ef2929;stroke-width:16.5px;stroke-linecap:round;stroke-linejoin:miter;stroke-opacity:1"
     d="m 429.78694,211.06242 c 63.71459,-28.84135 115.01545,-28.94274 158.21758,-10.29418"
     id="path71082"
     inkscape:connector-curvature="0"
     sodipodi:nodetypes="cc" /><path
     d="m 417.66746,730.13704 c -9.3422,-13.82917 -36.04651,-33.89438 -50.09417,-43.25702 -25.87998,-17.28218 -43.68858,-15.49556 -72.21321,-9.15647 -34.91307,7.71343 -64.72572,31.81574 -90.91481,66.32858 -39.0003,51.22813 -56.4826,45.02648 -60.38091,34.719 -16.36604,-64.35298 62.06387,-166.58591 63.16297,-246.10804 0.0343,-2.50816 0.13738,-5.46297 0.24041,-8.55522 0.53237,-11.83641 0.17174,-24.96124 0.17174,-24.96124 0,0 -35.46262,5.39424 -62.20127,6.01268 -15.43868,0.24052 -29.34896,-1.09947 -34.86155,-6.30474 -12.656622,-12.00818 -24.008098,-37.55354 -20.02392,-81.42901 4.052873,-43.89264 -8.981572,-70.22823 -5.100433,-95.44717 2.988132,-19.1032 14.631543,-45.74801 22.805983,-61.89637 11.43734,-22.57336 15.52455,-46.45235 22.87467,-70.89822 10.16653,-33.70543 27.54579,-68.68211 55.46937,-91.255471 8.8957,-7.180874 19.7001,-11.908582 30.72282,-16.766818 46.4032,-20.452113 183.59531,4.012834 232.843,71.962039 26.24473,36.21099 49.57374,132.03723 19.91764,214.6873 -20.49063,57.10636 -63.98989,83.43082 -70.81081,93.21531 -10.25522,14.71093 -20.60782,33.92877 -17.94597,49.45869 2.45577,14.32739 6.47428,27.3835 13.46378,37.27868 0.22324,57.27519 3.31442,69.73003 5.46106,81.66953 2.181,11.88794 18.90768,80.79339 17.41361,100.70398 z"
     id="path9118"
     inkscape:connector-curvature="0"
     sodipodi:nodetypes="cccccccccccccccsssssccc"
     style="fill:#000000;fill-opacity:1;stroke:#000000;stroke-width:16.5;stroke-miterlimit:4;stroke-dasharray:none" /><path
     style="fill:none;stroke:#888a85;stroke-width:8.25;stroke-miterlimit:4;stroke-dasharray:none"
     sodipodi:nodetypes="cccccccccccccccsssssccc"
     inkscape:connector-curvature="0"
     id="path71042"
     d="m 413.03682,719.8044 c -9.01775,-13.35309 -34.79467,-32.72756 -48.35447,-41.76786 -24.98124,-16.68726 -42.17137,-14.96212 -69.7054,-8.84125 -33.70059,7.44788 -62.47789,30.72046 -87.75751,64.04517 -37.64587,49.46458 -54.52105,43.47641 -58.28397,33.52377 -15.79768,-62.13758 59.90849,-160.85109 60.96942,-237.63564 0.0332,-2.4218 0.13262,-5.27488 0.23207,-8.26068 0.51389,-11.42893 0.16578,-24.10194 0.16578,-24.10194 0,0 -34.23107,5.20855 -60.04113,5.80569 -14.90252,0.23224 -28.32974,-1.06161 -33.65088,-6.0877 -12.21708,-11.5948 -23.174346,-36.26074 -19.328531,-78.62577 3.912121,-42.38163 -8.669659,-67.81058 -4.923305,-92.16135 2.88436,-18.44555 14.123416,-44.1731 22.013966,-59.76556 11.04015,-21.79626 14.98542,-44.85319 22.08029,-68.4575 9.81346,-32.54511 26.58917,-66.31768 53.54301,-88.11396 8.58677,-6.93366 19.01595,-11.498613 29.65589,-16.189613 44.79168,-19.748032 177.21937,3.874698 224.75678,69.484713 25.3333,34.9644 47.85214,127.49179 19.22594,207.29656 -19.77904,55.14046 -61.76765,80.55869 -68.35168,90.00633 -9.89907,14.20451 -19.89215,32.76076 -17.32274,47.75605 2.37049,13.83415 6.24945,26.44082 12.9962,35.99534 0.21549,55.30345 3.19931,67.32954 5.27141,78.85801 2.10526,11.4787 18.25105,78.01204 16.80886,97.23719 z" /><path
     sodipodi:type="arc"
     style="color:#000000;fill:#3465a4;fill-opacity:1;fill-rule:nonzero;stroke:#729fcf;stroke-width:0.32198429;stroke-linecap:butt;stroke-linejoin:miter;stroke-miterlimit:4;stroke-opacity:1;stroke-dasharray:none;stroke-dashoffset:0;marker:none;visibility:visible;display:inline;overflow:visible;enable-background:accumulate"
     id="path71054"
     sodipodi:cx="21.910713"
     sodipodi:cy="10.232143"
     sodipodi:rx="1.0714285"
     sodipodi:ry="1.0714285"
     d="m 22.982142,10.232143 a 1.0714285,1.0714285 0 1 1 -2.142857,0 1.0714285,1.0714285 0 1 1 2.142857,0 z"
     transform="matrix(28.198281,0,0,23.281764,-376.13911,-102.6018)" /><path
     transform="matrix(26.782423,11.152233,-9.5750089,22.997436,-107.36036,-301.04914)"
     d="m 22.982142,10.232143 a 1.0714285,1.0714285 0 1 1 -2.142857,0 1.0714285,1.0714285 0 1 1 2.142857,0 z"
     sodipodi:ry="1.0714285"
     sodipodi:rx="1.0714285"
     sodipodi:cy="10.232143"
     sodipodi:cx="21.910713"
     id="path71056"
     style="color:#000000;fill:#3465a4;fill-opacity:1;fill-rule:nonzero;stroke:#729fcf;stroke-width:0.30688241;stroke-linecap:butt;stroke-linejoin:miter;stroke-miterlimit:4;stroke-opacity:1;stroke-dasharray:none;stroke-dashoffset:0;marker:none;visibility:visible;display:inline;overflow:visible;enable-background:accumulate"
     sodipodi:type="arc" /><path
     sodipodi:type="arc"
     style="color:#000000;fill:#3465a4;fill-opacity:1;fill-rule:nonzero;stroke:#729fcf;stroke-width:0.29264906;stroke-linecap:butt;stroke-linejoin:miter;stroke-miterlimit:4;stroke-opacity:1;stroke-dasharray:none;stroke-dashoffset:0;marker:none;visibility:visible;display:inline;overflow:visible;enable-background:accumulate"
     id="path71058"
     sodipodi:cx="21.910713"
     sodipodi:cy="10.232143"
     sodipodi:rx="1.0714285"
     sodipodi:ry="1.0714285"
     d="m 22.982142,10.232143 a 1.0714285,1.0714285 0 1 1 -2.142857,0 1.0714285,1.0714285 0 1 1 2.142857,0 z"
     transform="matrix(28.198281,0,0,28.183243,-207.72298,63.925406)" /><path
     sodipodi:nodetypes="cc"
     inkscape:connector-curvature="0"
     id="path71066"
     d="M 240.77486,134.6906 C 210.58295,71.601765 171.39059,38.497717 126.32633,24.955735"
     style="fill:none;stroke:#a40000;stroke-width:33;stroke-linecap:round;stroke-linejoin:miter;stroke-miterlimit:4;stroke-opacity:1;stroke-dasharray:none" /><path
     style="fill:none;stroke:#a40000;stroke-width:33;stroke-linecap:round;stroke-linejoin:miter;stroke-miterlimit:4;stroke-opacity:1;stroke-dasharray:none"
     d="M 381.65455,177.63267 C 411.84646,114.54385 451.03882,81.439795 496.10308,67.897819"
     id="path71068"
     inkscape:connector-curvature="0"
     sodipodi:nodetypes="cc" /><path
     sodipodi:nodetypes="cc"
     inkscape:connector-curvature="0"
     id="path71070"
     d="m 412.91288,354.16032 c 117.65663,79.82804 64.7319,193.83831 132.12758,304.09576"
     style="fill:none;stroke:#a40000;stroke-width:33;stroke-linecap:round;stroke-linejoin:miter;stroke-miterlimit:4;stroke-opacity:1;stroke-dasharray:none" /><path
     style="fill:none;stroke:#ef2929;stroke-width:16.5px;stroke-linecap:round;stroke-linejoin:miter;stroke-opacity:1"
     d="M 240.77486,134.6906 C 210.58295,71.601765 171.39059,38.497717 126.32633,24.955735"
     id="path71060"
     inkscape:connector-curvature="0"
     sodipodi:nodetypes="cc" /><path
     sodipodi:nodetypes="cc"
     inkscape:connector-curvature="0"
     id="path71062"
     d="M 381.65455,177.63267 C 411.84646,114.54385 451.03882,81.439795 496.10308,67.897819"
     style="fill:none;stroke:#ef2929;stroke-width:16.5px;stroke-linecap:round;stroke-linejoin:miter;stroke-opacity:1" /><path
     style="fill:none;stroke:#ef2929;stroke-width:16.5px;stroke-linecap:round;stroke-linejoin:miter;stroke-opacity:1"
     d="m 412.91288,354.16032 c 117.65663,79.82804 64.7319,193.83831 132.12758,304.09576"
     id="path71064"
     inkscape:connector-curvature="0"
     sodipodi:nodetypes="cc" /><path
     transform="matrix(27.598048,5.7874706,-5.1131099,24.385233,-254.65597,-189.05968)"
     d="m 22.982142,10.232143 a 1.0714285,1.0714285 0 1 1 -2.142857,0 1.0714285,1.0714285 0 1 1 2.142857,0 z"
     sodipodi:ry="1.0714285"
     sodipodi:rx="1.0714285"
     sodipodi:cy="10.232143"
     sodipodi:cx="21.910713"
     id="path71103"
     style="color:#000000;fill:#5c3566;fill-opacity:1;fill-rule:nonzero;stroke:#ad7fa8;stroke-width:0.31124833;stroke-linecap:butt;stroke-linejoin:miter;stroke-miterlimit:4;stroke-opacity:1;stroke-dasharray:none;stroke-dashoffset:0;marker:none;visibility:visible;display:inline;overflow:visible;enable-background:accumulate"
     sodipodi:type="arc" /><path
     sodipodi:type="arc"
     style="color:#000000;fill:#5c3566;fill-opacity:1;fill-rule:nonzero;stroke:#ad7fa8;stroke-width:0.39434972;stroke-linecap:butt;stroke-linejoin:miter;stroke-miterlimit:4;stroke-opacity:1;stroke-dasharray:none;stroke-dashoffset:0;marker:none;visibility:visible;display:inline;overflow:visible;enable-background:accumulate"
     id="path71105"
     sodipodi:cx="21.910713"
     sodipodi:cy="10.232143"
     sodipodi:rx="1.0714285"
     sodipodi:ry="1.0714285"
     d="m 22.982142,10.232143 a 1.0714285,1.0714285 0 1 1 -2.142857,0 1.0714285,1.0714285 0 1 1 2.142857,0 z"
     transform="matrix(26.697768,9.0764608,-4.9953264,14.695166,-210.75423,-237.68401)" /><path
     transform="matrix(10.645272,26.113276,-14.371718,5.8594428,363.81363,-413.78218)"
     d="m 22.982142,10.232143 a 1.0714285,1.0714285 0 1 1 -2.142857,0 1.0714285,1.0714285 0 1 1 2.142857,0 z"
     sodipodi:ry="1.0714285"
     sodipodi:rx="1.0714285"
     sodipodi:cy="10.232143"
     sodipodi:cx="21.910713"
     id="path71107"
     style="color:#000000;fill:#5c3566;fill-opacity:1;fill-rule:nonzero;stroke:#ad7fa8;stroke-width:0.39434972;stroke-linecap:butt;stroke-linejoin:miter;stroke-miterlimit:4;stroke-opacity:1;stroke-dasharray:none;stroke-dashoffset:0;marker:none;visibility:visible;display:inline;overflow:visible;enable-background:accumulate"
     sodipodi:type="arc" /><path
     sodipodi:type="arc"
     style="color:#000000;fill:#5c3566;fill-opacity:1;fill-rule:nonzero;stroke:#ad7fa8;stroke-width:0.39434972;stroke-linecap:butt;stroke-linejoin:miter;stroke-miterlimit:4;stroke-opacity:1;stroke-dasharray:none;stroke-dashoffset:0;marker:none;visibility:visible;display:inline;overflow:visible;enable-background:accumulate"
     id="path71109"
     sodipodi:cx="21.910713"
     sodipodi:cy="10.232143"
     sodipodi:rx="1.0714285"
     sodipodi:ry="1.0714285"
     d="m 22.982142,10.232143 a 1.0714285,1.0714285 0 1 1 -2.142857,0 1.0714285,1.0714285 0 1 1 2.142857,0 z"
     transform="matrix(-0.98267001,28.182847,-15.510729,-0.54088792,636.37114,-311.36405)" /><path
     sodipodi:type="arc"
     style="color:#000000;fill:#5c3566;fill-opacity:1;fill-rule:nonzero;stroke:#ad7fa8;stroke-width:0.34036261;stroke-linecap:butt;stroke-linejoin:miter;stroke-miterlimit:4;stroke-opacity:1;stroke-dasharray:none;stroke-dashoffset:0;marker:none;visibility:visible;display:inline;overflow:visible;enable-background:accumulate"
     id="path71111"
     sodipodi:cx="21.910713"
     sodipodi:cy="10.232143"
     sodipodi:rx="1.0714285"
     sodipodi:ry="1.0714285"
     d="m 22.982142,10.232143 a 1.0714285,1.0714285 0 1 1 -2.142857,0 1.0714285,1.0714285 0 1 1 2.142857,0 z"
     transform="matrix(20.846504,0,0,28.183243,-61.894434,-25.841145)" /><path
     transform="matrix(28.198281,0,0,28.183243,-293.49371,-33.228908)"
     d="m 22.982142,10.232143 a 1.0714285,1.0714285 0 1 1 -2.142857,0 1.0714285,1.0714285 0 1 1 2.142857,0 z"
     sodipodi:ry="1.0714285"
     sodipodi:rx="1.0714285"
     sodipodi:cy="10.232143"
     sodipodi:cx="21.910713"
     id="path71113"
     style="color:#000000;fill:#3465a4;fill-opacity:1;fill-rule:nonzero;stroke:#729fcf;stroke-width:0.29264906;stroke-linecap:butt;stroke-linejoin:miter;stroke-miterlimit:4;stroke-opacity:1;stroke-dasharray:none;stroke-dashoffset:0;marker:none;visibility:visible;display:inline;overflow:visible;enable-background:accumulate"
     sodipodi:type="arc" /><path
     sodipodi:type="arc"
     style="color:#000000;fill:#5c3566;fill-opacity:1;fill-rule:nonzero;stroke:#ad7fa8;stroke-width:0.29264906;stroke-linecap:butt;stroke-linejoin:miter;stroke-miterlimit:4;stroke-opacity:1;stroke-dasharray:none;stroke-dashoffset:0;marker:none;visibility:visible;display:inline;overflow:visible;enable-background:accumulate"
     id="path71115"
     sodipodi:cx="21.910713"
     sodipodi:cy="10.232143"
     sodipodi:rx="1.0714285"
     sodipodi:ry="1.0714285"
     d="m 22.982142,10.232143 a 1.0714285,1.0714285 0 1 1 -2.142857,0 1.0714285,1.0714285 0 1 1 2.142857,0 z"
     transform="matrix(28.198281,0,0,28.183243,-286.49201,48.170653)" /><path
     transform="matrix(28.198281,0,0,28.183243,-252.35877,130.44547)"
     d="m 22.982142,10.232143 a 1.0714285,1.0714285 0 1 1 -2.142857,0 1.0714285,1.0714285 0 1 1 2.142857,0 z"
     sodipodi:ry="1.0714285"
     sodipodi:rx="1.0714285"
     sodipodi:cy="10.232143"
     sodipodi:cx="21.910713"
     id="path71117"
     style="color:#000000;fill:#5c3566;fill-opacity:1;fill-rule:nonzero;stroke:#ad7fa8;stroke-width:0.29264906;stroke-linecap:butt;stroke-linejoin:miter;stroke-miterlimit:4;stroke-opacity:1;stroke-dasharray:none;stroke-dashoffset:0;marker:none;visibility:visible;display:inline;overflow:visible;enable-background:accumulate"
     sodipodi:type="arc" /><path
     sodipodi:type="arc"
     style="color:#000000;fill:#5c3566;fill-opacity:1;fill-rule:nonzero;stroke:#ad7fa8;stroke-width:0.29264906;stroke-linecap:butt;stroke-linejoin:miter;stroke-miterlimit:4;stroke-opacity:1;stroke-dasharray:none;stroke-dashoffset:0;marker:none;visibility:visible;display:inline;overflow:visible;enable-background:accumulate"
     id="path71119"
     sodipodi:cx="21.910713"
     sodipodi:cy="10.232143"
     sodipodi:rx="1.0714285"
     sodipodi:ry="1.0714285"
     d="m 22.982142,10.232143 a 1.0714285,1.0714285 0 1 1 -2.142857,0 1.0714285,1.0714285 0 1 1 2.142857,0 z"
     transform="matrix(28.198281,0,0,28.183243,-293.49371,-33.228908)" /><path
     transform="matrix(22.081669,-17.537956,14.986401,18.871328,-418.71798,394.68049)"
     d="m 22.982142,10.232143 a 1.0714285,1.0714285 0 1 1 -2.142857,0 1.0714285,1.0714285 0 1 1 2.142857,0 z"
     sodipodi:ry="1.0714285"
     sodipodi:rx="1.0714285"
     sodipodi:cy="10.232143"
     sodipodi:cx="21.910713"
     id="path71121"
     style="color:#000000;fill:#5c3566;fill-opacity:1;fill-rule:nonzero;stroke:#ad7fa8;stroke-width:0.3164798;stroke-linecap:butt;stroke-linejoin:miter;stroke-miterlimit:4;stroke-opacity:1;stroke-dasharray:none;stroke-dashoffset:0;marker:none;visibility:visible;display:inline;overflow:visible;enable-background:accumulate"
     sodipodi:type="arc" /><path
     style="fill:none;stroke:#c4a000;stroke-width:33;stroke-linecap:round;stroke-linejoin:miter;stroke-miterlimit:4;stroke-opacity:1;stroke-dasharray:none"
     d="M 167.22648,147.8551 C 117.9854,98.187337 70.093574,79.79712 23.081979,81.812364"
     id="path71161"
     inkscape:connector-curvature="0"
     sodipodi:nodetypes="cc" /><path
     style="fill:none;stroke:#c4a000;stroke-width:33;stroke-linecap:round;stroke-linejoin:miter;stroke-miterlimit:4;stroke-opacity:1;stroke-dasharray:none"
     d="M 327.39143,105.86102 C 341.1906,55.352376 359.10341,28.849415 379.69995,18.007768"
     id="path71165"
     inkscape:connector-curvature="0"
     sodipodi:nodetypes="cc" /><path
     style="fill:none;stroke:#c4a000;stroke-width:33;stroke-linecap:round;stroke-linejoin:miter;stroke-miterlimit:4;stroke-opacity:1;stroke-dasharray:none"
     d="m 453.75275,218.18205 c 69.53238,-7.51851 118.30335,8.39409 153.52958,39.59314"
     id="path71167"
     inkscape:connector-curvature="0"
     sodipodi:nodetypes="cc" /><path
     sodipodi:nodetypes="cc"
     inkscape:connector-curvature="0"
     id="path71169"
     d="m 460.11676,300.08999 c 69.18136,10.25797 119.36606,147.36269 170.96889,182.93538"
     style="fill:none;stroke:#c4a000;stroke-width:33;stroke-linecap:round;stroke-linejoin:miter;stroke-miterlimit:4;stroke-opacity:1;stroke-dasharray:none" /><path
     style="fill:none;stroke:#c4a000;stroke-width:33;stroke-linecap:round;stroke-linejoin:miter;stroke-miterlimit:4;stroke-opacity:1;stroke-dasharray:none"
     d="M 368.27709,419.80513 C 470.3466,510.66191 424.43332,640.4234 482.90044,765.91358"
     id="path71171"
     inkscape:connector-curvature="0"
     sodipodi:nodetypes="cc" /><path
     sodipodi:nodetypes="cc"
     inkscape:connector-curvature="0"
     id="path71173"
     d="m 339.3951,336.65505 c 75.33359,48.51316 78.05958,85.82699 111.1225,145.67295"
     style="fill:none;stroke:#c4a000;stroke-width:33;stroke-linecap:round;stroke-linejoin:miter;stroke-miterlimit:4;stroke-opacity:1;stroke-dasharray:none" /><path
     style="fill:none;stroke:#c4a000;stroke-width:33;stroke-linecap:round;stroke-linejoin:miter;stroke-miterlimit:4;stroke-opacity:1;stroke-dasharray:none"
     d="m 394.47591,262.45363 c 50.76565,7.31318 87.59145,105.05881 125.45788,130.41954"
     id="path71175"
     inkscape:connector-curvature="0"
     sodipodi:nodetypes="cc" /><path
     sodipodi:nodetypes="cc"
     inkscape:connector-curvature="0"
     id="path71177"
     d="m 328.83507,257.20205 c 17.12157,2.30702 29.54168,33.1422 42.31278,41.14259"
     style="fill:none;stroke:#c4a000;stroke-width:33;stroke-linecap:round;stroke-linejoin:miter;stroke-miterlimit:4;stroke-opacity:1;stroke-dasharray:none" /><path
     style="fill:none;stroke:#c4a000;stroke-width:33;stroke-linecap:round;stroke-linejoin:miter;stroke-miterlimit:4;stroke-opacity:1;stroke-dasharray:none"
     d="m 297.63299,187.24198 c -1.94226,-26.9109 4.30943,-49.67743 -23.36532,-85.29855"
     id="path71179"
     inkscape:connector-curvature="0"
     sodipodi:nodetypes="cc" /><path
     sodipodi:type="arc"
     style="color:#000000;fill:#5c3566;fill-opacity:1;fill-rule:nonzero;stroke:#ad7fa8;stroke-width:0.3164798;stroke-linecap:butt;stroke-linejoin:miter;stroke-miterlimit:4;stroke-opacity:1;stroke-dasharray:none;stroke-dashoffset:0;marker:none;visibility:visible;display:inline;overflow:visible;enable-background:accumulate"
     id="path71123"
     sodipodi:cx="21.910713"
     sodipodi:cy="10.232143"
     sodipodi:rx="1.0714285"
     sodipodi:ry="0.65733802"
     d="m 22.982142,10.232143 a 1.0714285,0.65733802 0 1 1 -2.142857,0 1.0714285,0.65733802 0 1 1 2.142857,0 z"
     transform="matrix(15.455702,-23.586674,20.155106,13.208676,-373.68664,534.38799)" /><path
     sodipodi:nodetypes="cc"
     inkscape:connector-curvature="0"
     id="path71125"
     d="M 167.22648,147.8551 C 117.9854,98.187337 70.093574,79.79712 23.081979,81.812364"
     style="fill:none;stroke:#edd400;stroke-width:16.5px;stroke-linecap:round;stroke-linejoin:miter;stroke-opacity:1" /><path
     sodipodi:nodetypes="cc"
     inkscape:connector-curvature="0"
     id="path71163"
     d="M 215.36311,201.24621 C 174.79246,151.57844 135.33348,133.18823 96.599744,135.20347"
     style="fill:none;stroke:#c4a000;stroke-width:33;stroke-linecap:round;stroke-linejoin:miter;stroke-miterlimit:4;stroke-opacity:1;stroke-dasharray:none" /><path
     style="fill:none;stroke:#edd400;stroke-width:16.5px;stroke-linecap:round;stroke-linejoin:miter;stroke-opacity:1"
     d="M 215.36311,201.24621 C 174.79246,151.57844 135.33348,133.18823 96.599744,135.20347"
     id="path71127"
     inkscape:connector-curvature="0"
     sodipodi:nodetypes="cc" /><path
     sodipodi:nodetypes="cc"
     inkscape:connector-curvature="0"
     id="path71131"
     d="M 327.39143,105.86102 C 341.1906,55.352376 359.10341,28.849415 379.69995,18.007768"
     style="fill:none;stroke:#edd400;stroke-width:16.5px;stroke-linecap:round;stroke-linejoin:miter;stroke-opacity:1" /><path
     sodipodi:nodetypes="cc"
     inkscape:connector-curvature="0"
     id="path71135"
     d="m 453.75275,218.18205 c 69.53238,-7.51851 118.30335,8.39409 153.52958,39.59314"
     style="fill:none;stroke:#edd400;stroke-width:16.5px;stroke-linecap:round;stroke-linejoin:miter;stroke-opacity:1" /><path
     style="fill:none;stroke:#edd400;stroke-width:16.5px;stroke-linecap:round;stroke-linejoin:miter;stroke-opacity:1"
     d="m 460.11676,300.08999 c 69.18136,10.25797 119.36606,147.36269 170.96889,182.93538"
     id="path71139"
     inkscape:connector-curvature="0"
     sodipodi:nodetypes="cc" /><path
     sodipodi:nodetypes="cc"
     inkscape:connector-curvature="0"
     id="path71143"
     d="M 368.27709,419.80513 C 470.3466,510.66191 424.43332,640.4234 482.90044,765.91358"
     style="fill:none;stroke:#edd400;stroke-width:16.5px;stroke-linecap:round;stroke-linejoin:miter;stroke-opacity:1" /><path
     style="fill:none;stroke:#edd400;stroke-width:16.5px;stroke-linecap:round;stroke-linejoin:miter;stroke-opacity:1"
     d="m 339.3951,336.65505 c 75.33359,48.51316 78.05958,85.82699 111.1225,145.67295"
     id="path71145"
     inkscape:connector-curvature="0"
     sodipodi:nodetypes="cc" /><path
     sodipodi:nodetypes="cc"
     inkscape:connector-curvature="0"
     id="path71147"
     d="m 394.47591,262.45363 c 50.76565,7.31318 87.59145,105.05881 125.45788,130.41954"
     style="fill:none;stroke:#edd400;stroke-width:16.5px;stroke-linecap:round;stroke-linejoin:miter;stroke-opacity:1" /><path
     style="fill:none;stroke:#edd400;stroke-width:16.5px;stroke-linecap:round;stroke-linejoin:miter;stroke-opacity:1"
     d="m 328.83507,257.20205 c 17.12157,2.30702 29.54168,33.1422 42.31278,41.14259"
     id="path71149"
     inkscape:connector-curvature="0"
     sodipodi:nodetypes="cc" /><path
     sodipodi:nodetypes="cc"
     inkscape:connector-curvature="0"
     id="path71153"
     d="m 297.63299,187.24198 c -1.94226,-26.9109 4.30943,-49.67743 -23.36532,-85.29855"
     style="fill:none;stroke:#edd400;stroke-width:16.5px;stroke-linecap:round;stroke-linejoin:miter;stroke-opacity:1" /></svg>